<?xml version="1.0" standalone="no"?>
<!DOCTYPE svg PUBLIC "-//W3C//DTD SVG 20010904//EN"
 "http://www.w3.org/TR/2001/REC-SVG-20010904/DTD/svg10.dtd">
<svg version="1.0" xmlns="http://www.w3.org/2000/svg"
 width="1280.000000pt" height="577.000000pt" viewBox="0 0 1280.000000 577.000000"
 preserveAspectRatio="xMidYMid meet">
<metadata>
Created by potrace 1.15, written by Peter Selinger 2001-2017
</metadata>
<g transform="translate(0.000000,577.000000) scale(0.100000,-0.100000)"
fill="#000000" stroke="none">
<path d="M915 5309 c-27 -4 -54 -14 -60 -21 -5 -7 -28 -14 -50 -15 -62 -3 -81
-11 -94 -39 -10 -22 -9 -30 5 -45 9 -11 27 -19 38 -19 12 0 32 -7 44 -16 20
-14 22 -24 22 -104 0 -49 -4 -100 -10 -114 -9 -24 -14 -26 -77 -27 -93 -1
-156 -11 -161 -27 -3 -11 19 -12 123 -6 l126 7 -3 -299 c-3 -279 10 -2562 15
-2588 1 -8 -66 -12 -243 -14 -143 -1 -248 -6 -254 -12 -6 -6 -52 -10 -104 -10
l-93 0 -25 57 c-23 51 -26 55 -41 40 -24 -24 -35 -195 -22 -346 5 -68 15 -133
20 -143 13 -24 33 -18 37 10 2 12 7 22 12 22 5 0 13 15 18 33 l8 32 132 1 132
1 -30 -27 c-31 -28 -29 -28 -159 -18 -30 3 -35 -1 -44 -26 -7 -22 -6 -35 7
-56 12 -21 16 -54 16 -128 0 -135 11 -253 23 -249 6 2 9 48 8 111 -2 71 2 112
10 122 9 11 8 24 -6 59 -15 41 -15 48 -2 69 21 32 119 46 146 22 10 -9 32 -16
50 -16 27 0 36 7 60 47 54 89 52 88 174 85 93 -3 107 -6 107 -20 -1 -21 -31
-108 -50 -142 -7 -14 -19 -43 -26 -65 -12 -40 -15 -42 -45 -30 -12 5 -20 -2
-28 -26 -15 -44 -14 -49 12 -49 33 0 42 -10 62 -64 24 -62 94 -148 144 -176
l38 -22 -5 -69 c-4 -57 -2 -70 12 -75 30 -12 43 12 38 71 l-5 55 29 -11 c16
-6 54 -15 84 -21 41 -7 65 -19 96 -48 32 -29 47 -37 67 -33 38 7 54 30 39 54
-13 21 -15 198 -3 338 5 67 3 91 -10 120 -35 80 -34 88 19 115 27 13 54 32 61
40 8 9 19 16 27 16 7 0 17 8 22 17 9 15 44 17 358 21 l349 4 28 -56 27 -57
-21 -28 c-27 -36 -19 -65 24 -82 18 -7 39 -22 47 -32 14 -16 24 -18 74 -12 50
7 61 12 75 36 19 34 57 52 102 47 l34 -3 8 -70 c6 -46 4 -98 -4 -152 -16 -108
-8 -194 23 -241 14 -20 27 -45 31 -55 10 -26 88 -127 98 -127 5 0 14 -11 19
-25 7 -18 17 -25 35 -25 15 0 25 -6 25 -14 0 -8 8 -17 18 -20 9 -4 40 -41 67
-83 28 -43 63 -92 79 -111 16 -18 27 -34 25 -37 -3 -2 -290 0 -639 5 -349 5
-994 12 -1432 16 l-798 7 0 -180 0 -180 858 -9 c471 -5 2652 -10 4847 -11
2195 -2 4076 -3 4180 -4 341 -3 2606 11 2763 17 l152 6 0 170 0 170 -1542 -7
-1543 -8 31 35 c16 19 56 76 88 126 51 80 62 92 86 92 16 0 30 -6 33 -12 3
-10 7 -10 20 0 11 10 21 11 35 3 25 -13 32 -5 32 38 0 30 6 40 34 59 19 13 36
34 38 45 2 14 11 23 25 25 42 6 45 21 46 240 l0 210 24 -1 c13 0 31 7 41 16 9
8 26 17 37 19 15 2 21 13 25 43 3 23 18 57 34 78 l28 37 342 0 c253 0 345 -3
354 -12 8 -8 12 -50 11 -128 -1 -193 -16 -465 -27 -486 -12 -22 6 -54 30 -54
31 0 98 41 98 60 0 14 9 21 38 25 134 23 250 119 288 239 15 49 15 58 0 136
-16 76 -45 140 -65 140 -11 0 -84 100 -78 107 4 3 29 8 56 11 45 4 53 1 97
-32 49 -38 126 -66 179 -66 19 0 39 -8 50 -20 18 -19 17 -22 -2 -88 -12 -37
-37 -105 -57 -152 -43 -102 -45 -132 -11 -162 19 -16 22 -24 14 -35 -10 -11
11 -13 114 -13 93 0 127 3 136 14 7 8 43 15 97 19 57 3 89 10 95 18 12 19 11
21 -9 46 -25 32 -117 44 -284 36 -80 -3 -138 -2 -138 3 0 5 28 65 63 134 48
97 67 126 84 128 19 3 93 73 104 98 13 31 191 74 227 55 29 -16 112 -14 131 3
27 24 55 22 83 -7 27 -27 74 -36 113 -21 19 8 47 62 65 126 18 68 9 211 -17
268 -30 64 -74 107 -118 116 -37 7 -45 4 -139 -48 -26 -14 -61 -17 -207 -18
l-176 0 -7 166 c-7 161 -3 195 22 180 5 -3 12 -20 15 -39 11 -72 59 -209 69
-199 6 6 1 42 -16 105 -14 52 -26 100 -26 105 0 18 42 52 65 52 12 0 31 10 43
23 22 23 22 28 22 359 0 401 9 374 -116 364 l-82 -7 -7 37 c-3 20 -6 179 -6
353 0 333 -3 473 -11 487 -3 5 -7 200 -9 434 l-4 425 75 3 c58 2 78 7 90 21
14 15 42 20 185 30 181 13 228 21 223 35 -5 13 -250 1 -370 -19 -39 -6 -36 12
12 106 35 67 38 81 29 107 -10 29 -11 29 -112 38 -117 10 -130 10 -572 2 -228
-5 -393 -2 -535 7 -113 7 -241 10 -285 6 -44 -3 -134 -2 -200 2 -66 4 -365 6
-665 3 -300 -3 -680 -1 -845 4 -165 5 -577 12 -915 15 -1690 15 -1765 16
-1780 29 -26 23 -73 25 -292 16 -175 -8 -244 -7 -389 7 -164 16 -181 16 -250
0 -94 -21 -138 -21 -1884 -14 -1375 6 -2251 21 -2269 38 -6 5 -6 9 -2 9 5 0 3
7 -4 15 -14 17 -108 19 -195 4z m11159 -2226 c7 -23 -1 -394 -9 -401 -3 -4
-36 -8 -73 -10 -65 -4 -68 -3 -80 22 -17 38 -17 372 1 383 14 9 78 20 124 22
22 1 33 -4 37 -16z m-31 -444 c34 -18 37 -28 37 -126 0 -102 -10 -123 -60
-123 l-28 0 -4 123 c-2 67 -3 125 -1 130 6 10 31 9 56 -4z m-114 -51 c7 -24
11 -79 9 -123 -2 -65 -6 -80 -20 -83 -15 -3 -17 11 -20 120 -2 68 -2 126 0
131 7 15 20 -4 31 -45z m-9569 -1023 c28 -30 20 -42 -18 -29 -16 6 -28 18 -30
32 -5 30 18 28 48 -3z m1930 16 c0 -5 -6 -14 -14 -20 -16 -13 -32 2 -21 19 8
12 35 13 35 1z m424 -1 c-5 -5 -34 -12 -64 -14 -30 -3 -100 -10 -155 -17 -56
-7 -118 -9 -139 -5 -37 7 -37 8 -20 27 16 17 32 19 203 19 123 0 182 -3 175
-10z m-3741 -27 c3 -5 8 -23 12 -40 8 -42 -10 -44 -54 -7 -42 35 -40 54 3 54
19 0 37 -3 39 -7z m10335 -40 c83 -60 112 -96 132 -161 25 -81 25 -102 -2
-159 -40 -86 -125 -149 -234 -173 -26 -6 -55 -15 -66 -21 -11 -6 -22 -8 -25
-6 -2 3 3 33 13 67 14 51 15 67 5 101 -11 35 -10 44 3 58 24 27 23 176 -1 191
-17 10 -17 10 0 20 9 6 17 17 17 24 0 8 11 17 24 20 15 4 28 17 34 36 14 39
50 40 100 3z m-10336 -70 c15 -3 30 -13 33 -23 8 -26 10 -108 2 -116 -3 -4
-26 1 -50 10 -23 9 -53 16 -65 16 -12 0 -27 9 -34 20 -7 11 -20 20 -29 20 -31
0 -40 70 -14 120 21 42 35 41 85 -2 24 -22 57 -42 72 -45z m167 -17 c13 -80
13 -89 -3 -104 -16 -16 -19 -15 -42 13 -13 16 -29 53 -35 82 -12 51 -11 52 17
77 16 14 34 24 39 22 6 -1 16 -42 24 -90z m3381 30 c0 -46 9 -55 46 -48 19 3
21 9 17 42 -5 32 -2 39 16 45 14 4 31 1 46 -9 13 -9 35 -16 47 -16 13 0 46
-11 73 -25 28 -13 60 -25 71 -25 12 0 24 -7 28 -15 3 -8 17 -15 31 -15 16 0
25 6 25 15 0 13 31 15 215 15 l215 0 0 -37 c0 -21 7 -81 15 -133 8 -52 15
-118 15 -147 0 -52 0 -52 35 -59 19 -3 43 -3 52 0 15 6 13 10 -10 29 -31 24
-39 65 -52 250 l-6 97 221 0 c203 0 224 2 261 21 39 19 52 20 312 15 150 -3
289 -8 309 -12 21 -4 48 -19 64 -35 19 -20 38 -29 60 -29 27 0 31 -3 27 -20
-5 -19 0 -20 74 -20 106 0 173 -10 173 -25 0 -7 10 -25 22 -41 16 -20 24 -48
29 -100 5 -48 17 -94 38 -138 26 -56 34 -66 56 -66 14 0 34 9 45 20 25 25 57
26 78 1 24 -28 82 -18 82 14 0 12 7 28 15 35 21 18 19 27 -9 34 -21 5 -25 15
-41 116 -10 61 -16 113 -13 115 2 2 58 5 124 6 105 1 126 -2 160 -20 21 -12
42 -21 46 -21 15 0 42 54 48 94 l5 41 418 3 c328 2 419 -1 422 -10 2 -7 11
-90 19 -185 13 -167 15 -174 50 -236 40 -73 99 -156 146 -207 17 -19 53 -69
80 -110 27 -41 68 -97 92 -124 l43 -49 -105 6 c-58 4 -1156 9 -2440 12 -1284
3 -2377 8 -2429 11 l-93 6 34 37 c51 54 82 99 112 163 21 45 34 59 54 64 43 9
57 19 60 48 2 17 9 26 21 26 12 0 33 31 69 100 50 98 52 103 52 184 0 46 3
123 6 173 6 85 9 92 43 131 l36 42 100 3 c55 1 110 4 123 5 20 2 22 -2 22 -42z
m-1866 3 c20 -12 36 -28 35 -37 -1 -30 -35 -77 -58 -80 -38 -6 -51 15 -51 79
0 52 2 59 19 59 11 0 36 -9 55 -21z m-1815 -180 c30 -11 31 -13 31 -70 0 -32
-4 -59 -8 -59 -11 0 -89 82 -94 100 -4 11 16 32 38 40 1 0 15 -5 33 -11z m172
-63 c23 -29 66 -34 99 -13 27 16 35 2 44 -68 10 -86 11 -85 -115 -53 -60 15
-114 30 -120 33 -10 7 -12 94 -3 120 10 25 70 13 95 -19z"/>
</g>
</svg>
