<?xml version="1.0" standalone="no"?>
<!DOCTYPE svg PUBLIC "-//W3C//DTD SVG 20010904//EN"
 "http://www.w3.org/TR/2001/REC-SVG-20010904/DTD/svg10.dtd">
<svg version="1.0" xmlns="http://www.w3.org/2000/svg"
 width="512.000000pt" height="512.000000pt" viewBox="0 0 512.000000 512.000000"
 preserveAspectRatio="xMidYMid meet">

<g transform="translate(0.000000,512.000000) scale(0.100000,-0.100000)"
fill="#000000" stroke="none">
<path d="M4212 5024 c-32 -22 -62 -87 -62 -134 0 -63 23 -103 105 -190 41 -43
75 -81 75 -84 0 -4 -32 -40 -70 -82 -92 -99 -114 -141 -108 -210 5 -59 42
-119 85 -135 32 -12 72 6 92 43 14 24 14 30 -4 65 -11 21 -21 41 -23 45 -2 4
28 40 66 80 148 156 149 228 1 384 -38 40 -69 76 -69 79 0 4 9 18 20 32 27 34
25 69 -5 98 -28 29 -70 32 -103 9z"/>
<path d="M4778 5029 c-30 -17 -68 -93 -68 -135 1 -59 30 -112 109 -197 39 -42
71 -79 71 -83 0 -3 -30 -38 -66 -77 -87 -95 -118 -155 -112 -218 9 -85 77
-150 135 -128 50 19 69 74 38 115 -25 33 -17 50 56 129 135 146 135 219 -1
359 -71 74 -81 96 -55 130 21 27 19 59 -6 90 -22 28 -68 35 -101 15z"/>
<path d="M2889 4671 c-22 -17 -24 -29 -27 -115 l-4 -96 -31 0 c-56 0 -229 -29
-331 -56 -390 -100 -748 -348 -989 -684 -168 -236 -288 -562 -315 -856 l-7
-79 -90 -5 c-105 -6 -134 -20 -165 -84 -18 -38 -20 -61 -20 -211 0 -191 11
-230 73 -273 l33 -22 1923 0 1924 0 35 22 c61 38 72 78 72 276 0 152 -2 177
-19 211 -31 60 -62 75 -166 81 l-90 5 -7 87 c-23 277 -126 562 -295 818 -105
158 -311 364 -473 472 -246 165 -502 258 -797 291 l-103 11 0 88 c0 81 -2 91
-25 113 -29 30 -74 32 -106 6z m209 -372 c208 -22 379 -72 557 -161 421 -212
727 -595 839 -1048 22 -93 46 -241 46 -292 0 -17 -72 -18 -1597 -16 l-1598 3
3 60 c11 237 121 544 275 769 70 103 208 251 312 336 323 264 756 394 1163
349z m1712 -1814 l0 -145 -1870 0 -1870 0 0 145 0 145 1870 0 1870 0 0 -145z"/>
<path d="M3295 3955 c-54 -53 -27 -99 91 -156 168 -82 340 -226 456 -383 55
-73 168 -284 168 -313 0 -19 42 -43 76 -43 35 0 74 37 74 70 0 25 -54 151
-101 237 -128 232 -365 454 -608 572 -98 48 -123 50 -156 16z"/>
<path d="M195 2003 c-32 -8 -84 -51 -100 -83 -13 -25 -15 -143 -15 -875 0
-937 -3 -890 64 -938 30 -21 40 -22 306 -25 273 -3 276 -3 310 20 48 33 72 78
78 153 l5 65 493 0 493 0 658 90 c362 50 676 96 698 101 21 6 213 119 425 251
212 132 447 279 523 327 153 95 188 131 214 220 38 132 -29 277 -156 335 -61
28 -169 28 -226 0 -22 -11 -225 -122 -451 -247 l-410 -227 -126 0 -125 0 -17
68 c-23 92 -61 166 -124 233 -65 71 -130 113 -224 147 -66 23 -93 26 -293 33
-174 6 -237 12 -300 28 -96 26 -190 68 -259 118 -92 66 -150 87 -256 91 -65 3
-117 -1 -165 -12 -82 -20 -228 -87 -312 -144 l-60 -41 -5 103 c-5 116 -20 153
-78 189 -33 21 -47 22 -290 24 -140 1 -264 -1 -275 -4z m485 -963 l0 -810
-225 0 -225 0 0 810 0 810 225 0 225 0 0 -810z m769 685 c23 -8 70 -35 105
-60 108 -77 253 -133 401 -154 39 -6 142 -13 230 -15 170 -5 240 -18 323 -60
87 -45 159 -138 178 -234 l6 -32 -567 -2 -567 -3 -19 -24 c-24 -30 -24 -72 0
-102 l19 -24 764 -3 c534 -2 777 1 808 8 25 6 239 119 477 251 458 253 468
258 533 224 53 -28 76 -109 48 -170 -9 -19 -150 -113 -525 -346 l-512 -320
-648 -89 -648 -90 -507 0 -508 0 0 508 0 508 68 50 c220 164 409 226 541 179z"/>
</g>
</svg>
