<?xml version="1.0" standalone="no"?>
<!DOCTYPE svg PUBLIC "-//W3C//DTD SVG 20010904//EN"
 "http://www.w3.org/TR/2001/REC-SVG-20010904/DTD/svg10.dtd">
<svg version="1.0" xmlns="http://www.w3.org/2000/svg"
 width="512.000000pt" height="512.000000pt" viewBox="0 0 512.000000 512.000000"
 preserveAspectRatio="xMidYMid meet">

<g transform="translate(0.000000,512.000000) scale(0.100000,-0.100000)"
fill="#000000" stroke="none">
<path d="M905 4935 c-25 -24 -25 -27 -25 -187 0 -153 -50 -1790 -55 -1796 -2
-2 -130 53 -285 123 -155 69 -293 125 -307 125 -13 0 -35 -11 -48 -25 l-25
-24 0 -1471 0 -1471 25 -24 24 -25 2351 0 2351 0 24 25 25 24 0 831 0 831 -25
24 c-23 24 -29 25 -160 25 l-135 0 0 294 c0 265 -2 296 -17 314 -22 25 -1475
672 -1510 672 -13 0 -35 -11 -48 -25 l-25 -24 0 -271 c0 -148 -3 -270 -7 -270
-5 0 -45 16 -90 37 l-83 36 0 51 c0 28 -14 445 -30 926 -16 481 -30 960 -30
1063 0 254 17 237 -240 237 -254 0 -240 12 -240 -212 0 -153 -50 -1790 -55
-1796 -2 -2 -130 53 -285 123 -155 69 -293 125 -307 125 -13 0 -35 -11 -48
-25 l-25 -24 0 -271 c0 -148 -3 -270 -7 -270 -5 0 -45 16 -90 37 l-83 36 0 51
c0 28 -14 445 -30 926 -16 481 -30 960 -30 1063 0 254 17 237 -240 237 -189 0
-191 0 -215 -25z m295 -215 l0 -80 -80 0 -80 0 0 80 0 80 80 0 80 0 0 -80z
m1440 0 l0 -80 -80 0 -80 0 0 80 0 80 80 0 80 0 0 -80z m-1436 -312 c8 -110
57 -1641 52 -1645 -2 -3 -64 22 -138 54 l-133 60 2 69 c2 38 12 366 23 729 11
363 23 693 26 733 l6 72 78 0 78 0 6 -72z m1440 0 c8 -110 57 -1641 52 -1645
-2 -3 -64 22 -138 54 l-133 60 2 69 c2 38 12 366 23 729 11 363 23 693 26 733
l6 72 78 0 78 0 6 -72z m-1676 -1699 l632 -281 0 -254 0 -254 -455 0 -456 0
-24 -25 -25 -24 0 -776 0 -775 -160 0 -160 0 0 1335 c0 734 3 1335 8 1335 4 0
292 -126 640 -281z m1440 0 l632 -281 0 -254 0 -254 -640 0 -640 0 0 535 c0
294 3 535 8 535 4 0 292 -126 640 -281z m1440 0 l632 -281 0 -254 0 -254 -640
0 -640 0 0 535 c0 294 3 535 8 535 4 0 292 -126 640 -281z m952 -1669 l0 -720
-400 0 -400 0 0 295 0 296 -25 24 -24 25 -511 0 -511 0 -24 -25 -25 -24 0
-296 0 -295 -1040 0 -1040 0 0 720 0 720 2000 0 2000 0 0 -720z m-960 -480 l0
-240 -400 0 -400 0 0 240 0 240 400 0 400 0 0 -240z"/>
<path d="M985 1575 c-25 -24 -25 -26 -25 -215 0 -257 -17 -240 240 -240 257 0
240 -17 240 240 0 257 17 240 -240 240 -189 0 -191 0 -215 -25z m295 -215 l0
-80 -80 0 -80 0 0 80 0 80 80 0 80 0 0 -80z"/>
<path d="M1625 1575 c-25 -24 -25 -26 -25 -215 0 -257 -17 -240 240 -240 257
0 240 -17 240 240 0 257 17 240 -240 240 -189 0 -191 0 -215 -25z m295 -215
l0 -80 -80 0 -80 0 0 80 0 80 80 0 80 0 0 -80z"/>
<path d="M2265 1575 c-25 -24 -25 -26 -25 -215 0 -257 -17 -240 240 -240 257
0 240 -17 240 240 0 257 17 240 -240 240 -189 0 -191 0 -215 -25z m295 -215
l0 -80 -80 0 -80 0 0 80 0 80 80 0 80 0 0 -80z"/>
<path d="M2905 1575 c-25 -24 -25 -26 -25 -215 0 -257 -17 -240 240 -240 257
0 240 -17 240 240 0 257 17 240 -240 240 -189 0 -191 0 -215 -25z m295 -215
l0 -80 -80 0 -80 0 0 80 0 80 80 0 80 0 0 -80z"/>
<path d="M3545 1575 c-25 -24 -25 -26 -25 -215 0 -257 -17 -240 240 -240 257
0 240 -17 240 240 0 257 17 240 -240 240 -189 0 -191 0 -215 -25z m295 -215
l0 -80 -80 0 -80 0 0 80 0 80 80 0 80 0 0 -80z"/>
<path d="M4185 1575 c-25 -24 -25 -26 -25 -215 0 -257 -17 -240 240 -240 257
0 240 -17 240 240 0 257 17 240 -240 240 -189 0 -191 0 -215 -25z m295 -215
l0 -80 -80 0 -80 0 0 80 0 80 80 0 80 0 0 -80z"/>
<path d="M985 935 c-25 -24 -25 -26 -25 -215 0 -257 -17 -240 240 -240 257 0
240 -17 240 240 0 257 17 240 -240 240 -189 0 -191 0 -215 -25z m295 -215 l0
-80 -80 0 -80 0 0 80 0 80 80 0 80 0 0 -80z"/>
<path d="M1625 935 c-25 -24 -25 -26 -25 -215 0 -257 -17 -240 240 -240 257 0
240 -17 240 240 0 257 17 240 -240 240 -189 0 -191 0 -215 -25z m295 -215 l0
-80 -80 0 -80 0 0 80 0 80 80 0 80 0 0 -80z"/>
<path d="M2265 935 c-25 -24 -25 -26 -25 -215 0 -257 -17 -240 240 -240 257 0
240 -17 240 240 0 257 17 240 -240 240 -189 0 -191 0 -215 -25z m295 -215 l0
-80 -80 0 -80 0 0 80 0 80 80 0 80 0 0 -80z"/>
<path d="M4185 935 c-25 -24 -25 -26 -25 -215 0 -257 -17 -240 240 -240 257 0
240 -17 240 240 0 257 17 240 -240 240 -189 0 -191 0 -215 -25z m295 -215 l0
-80 -80 0 -80 0 0 80 0 80 80 0 80 0 0 -80z"/>
</g>
</svg>
