<?xml version="1.0" standalone="no"?>
<!DOCTYPE svg PUBLIC "-//W3C//DTD SVG 20010904//EN"
 "http://www.w3.org/TR/2001/REC-SVG-20010904/DTD/svg10.dtd">
<svg version="1.0" xmlns="http://www.w3.org/2000/svg"
 width="512.000000pt" height="512.000000pt" viewBox="0 0 512.000000 512.000000"
 preserveAspectRatio="xMidYMid meet">

<g transform="translate(0.000000,512.000000) scale(0.100000,-0.100000)"
fill="#000000" stroke="none">
<path d="M1745 5109 c-40 -24 -65 -53 -65 -78 0 -20 28 -53 118 -141 65 -63
131 -132 147 -153 35 -48 46 -39 52 46 9 114 -47 249 -128 309 -32 24 -97 33
-124 17z"/>
<path d="M2695 4972 c-38 -13 -51 -22 -53 -40 -5 -31 17 -36 77 -16 115 37
225 -3 289 -107 26 -41 43 -58 59 -59 30 0 33 19 11 64 -73 144 -231 210 -383
158z"/>
<path d="M1210 4898 c-53 -28 -80 -75 -80 -139 0 -34 5 -51 21 -65 20 -18 40
-19 295 -19 151 0 274 2 274 5 0 3 -7 17 -17 30 -107 162 -357 257 -493 188z"/>
<path d="M2711 4827 c-42 -15 -61 -41 -43 -59 9 -9 22 -10 57 0 89 24 118 15
181 -55 67 -74 104 -37 45 44 -52 72 -152 101 -240 70z"/>
<path d="M2370 4654 c-183 -48 -342 -195 -405 -375 l-14 -38 59 38 c126 82
240 79 327 -8 106 -105 87 -267 -40 -356 -32 -22 -64 -50 -72 -62 -19 -27 -43
-124 -47 -188 l-3 -50 51 -30 c78 -47 149 -67 252 -73 184 -9 318 41 442 167
42 42 84 93 95 114 l20 37 -24 46 c-28 53 -90 125 -133 155 -24 17 -48 23
-111 26 -63 2 -90 9 -129 30 -115 63 -152 214 -79 323 55 83 145 117 281 107
l75 -5 -37 32 c-49 43 -147 92 -223 111 -74 19 -212 18 -285 -1z m437 -705
c72 -27 120 -114 75 -138 -9 -5 -67 -14 -127 -20 -145 -15 -170 -22 -303 -92
-63 -34 -122 -59 -135 -57 -14 2 -24 13 -31 35 -29 102 116 237 299 279 64 15
174 11 222 -7z"/>
<path d="M1425 4466 c-55 -21 -75 -48 -75 -105 0 -82 18 -86 202 -41 67 17
142 30 165 30 24 0 43 4 43 9 0 16 -63 63 -119 89 -66 31 -160 38 -216 18z"/>
<path d="M3091 4473 l-34 -5 63 -40 c122 -77 226 -202 335 -401 43 -80 52 -91
94 -109 102 -45 248 -32 340 30 50 34 101 104 101 139 0 29 -4 29 -47 -4 -31
-24 -46 -28 -97 -28 -91 1 -146 36 -298 186 -69 69 -148 140 -174 157 -86 57
-196 86 -283 75z"/>
<path d="M2715 4441 c-47 -12 -79 -37 -103 -80 -28 -49 -28 -103 0 -153 33
-58 70 -76 163 -81 101 -5 145 -26 218 -107 54 -60 145 -223 198 -353 l23 -59
-24 -19 c-14 -10 -27 -19 -30 -19 -3 0 -23 41 -45 92 -38 90 -39 91 -53 67 -9
-13 -52 -60 -96 -104 -130 -128 -267 -185 -451 -185 -107 0 -194 19 -277 60
-33 17 -62 30 -64 30 -2 0 -1 -20 2 -44 6 -42 6 -43 -26 -50 -18 -3 -36 -3
-39 0 -3 3 -6 67 -5 142 1 220 36 318 136 384 67 44 91 85 92 149 0 85 -73
158 -159 159 -77 0 -205 -94 -276 -203 -39 -60 -78 -166 -100 -272 -16 -77
-16 -372 0 -485 39 -270 98 -499 139 -544 31 -33 80 -56 119 -56 40 0 109 37
131 71 19 30 19 27 25 -423 7 -461 15 -641 42 -918 22 -216 44 -352 61 -370
23 -23 379 -27 559 -6 366 44 749 148 995 272 136 68 128 44 80 229 -75 291
-236 749 -421 1194 -37 91 -67 167 -64 169 2 2 13 -2 26 -8 32 -18 124 -8 157
17 93 69 87 183 -24 505 -62 177 -192 480 -256 596 -108 194 -250 333 -390
381 -68 24 -212 36 -263 22z"/>
<path d="M3365 1084 c-49 -14 -146 -35 -215 -48 l-125 -23 -3 -389 c-4 -465
-2 -475 72 -549 79 -78 167 -96 261 -51 59 28 97 66 122 121 16 36 18 82 21
503 l3 462 -23 -1 c-13 -1 -63 -12 -113 -25z"/>
<path d="M2835 990 c-33 -4 -136 -8 -228 -9 l-168 -1 3 -402 c3 -394 3 -404
25 -444 42 -79 129 -134 213 -134 84 0 171 55 213 134 22 40 22 50 25 454 2
332 0 412 -10 411 -7 -1 -40 -5 -73 -9z"/>
</g>
</svg>
