<?xml version="1.0" standalone="no"?>
<!DOCTYPE svg PUBLIC "-//W3C//DTD SVG 20010904//EN"
 "http://www.w3.org/TR/2001/REC-SVG-20010904/DTD/svg10.dtd">
<svg version="1.0" xmlns="http://www.w3.org/2000/svg"
 width="512.000000pt" height="512.000000pt" viewBox="0 0 512.000000 512.000000"
 preserveAspectRatio="xMidYMid meet">

<g transform="translate(0.000000,512.000000) scale(0.100000,-0.100000)"
fill="#000000" stroke="none">
<path d="M176 4914 c-106 -33 -185 -156 -173 -269 6 -64 2 -55 198 -396 l159
-276 0 -1345 0 -1346 -28 -5 c-78 -16 -121 -92 -122 -215 0 -122 27 -178 105
-213 36 -17 70 -19 317 -19 l276 0 -35 -68 c-80 -157 -45 -347 88 -466 121
-109 282 -134 425 -67 215 101 297 355 180 556 l-27 45 862 2 861 3 19 24 c25
30 24 62 -2 95 l-20 26 -1447 2 -1447 3 -3 69 c-2 49 1 72 10 77 17 11 4569
11 4586 0 9 -5 12 -28 10 -77 l-3 -69 -709 -3 -710 -2 -23 -22 c-31 -29 -30
-72 2 -103 23 -24 30 -25 145 -25 l121 0 -25 -42 c-116 -202 -41 -450 167
-553 165 -81 340 -47 466 91 71 77 95 145 96 265 0 90 -2 100 -36 167 l-35 72
275 0 c246 0 280 2 316 19 78 35 105 91 105 213 0 89 -19 147 -58 181 -29 26
-89 46 -139 47 l-43 0 0 63 c0 78 -29 132 -85 164 -38 22 -50 23 -275 23
l-235 0 3 922 c2 659 0 934 -8 961 -6 22 -30 59 -52 83 -66 71 -84 74 -494 74
l-352 0 -3 163 c-4 160 -4 163 -37 229 -38 77 -92 130 -171 167 l-56 26 -400
0 -400 0 -63 -29 c-79 -37 -152 -114 -181 -191 -18 -48 -21 -78 -21 -210 l0
-154 -377 -3 -378 -3 -48 -28 c-57 -34 -92 -84 -107 -152 -7 -34 -10 -339 -8
-953 l3 -902 -127 0 -128 0 0 180 c0 167 -1 181 -20 200 -25 25 -71 26 -101 1
l-24 -19 -3 -306 -3 -306 -109 0 -110 0 0 1349 c0 1012 -3 1356 -12 1382 -6
19 -86 162 -176 318 -90 157 -166 299 -169 316 -10 61 47 125 109 125 58 0 80
-29 260 -341 96 -167 181 -320 189 -339 12 -29 15 -200 19 -973 l5 -939 28
-24 c34 -29 56 -30 91 -3 l26 20 0 931 c0 1002 1 988 -52 1092 -68 134 -355
617 -386 649 -41 42 -124 77 -180 76 -20 0 -59 -7 -86 -15z m2918 -906 c52
-16 108 -72 124 -124 7 -24 12 -98 12 -173 l0 -131 -50 0 -50 0 0 130 c0 146
-10 179 -58 199 -20 8 -126 11 -376 9 l-348 -3 -24 -28 c-23 -27 -24 -35 -24
-168 l0 -139 -50 0 -50 0 0 146 c0 160 7 188 59 238 55 52 77 55 450 56 244 0
356 -4 385 -12z m-114 -333 l0 -95 -265 0 -265 0 0 95 0 95 265 0 265 0 0 -95z
m-1200 -448 l0 -203 -36 -13 c-68 -25 -74 -47 -74 -291 0 -244 6 -266 74 -291
l36 -13 0 -438 0 -438 -221 0 c-124 0 -228 4 -239 10 -10 5 -23 24 -29 41 -15
44 -16 1743 0 1786 5 17 20 35 32 41 13 6 108 11 240 11 l217 1 0 -203z m290
-2 l0 -205 -70 0 -70 0 0 205 0 205 70 0 70 0 0 -205z m1140 2 l0 -203 -34
-12 c-20 -8 -44 -27 -55 -46 -19 -31 -21 -49 -21 -246 0 -240 4 -257 72 -287
l38 -17 0 -438 0 -438 -495 0 -495 0 0 438 0 438 35 17 c67 32 70 45 70 287 0
242 -3 255 -70 287 l-35 17 0 203 0 203 495 0 495 0 0 -203z m290 -2 l0 -205
-70 0 -70 0 0 205 0 205 70 0 70 0 0 -205z m615 180 l25 -24 0 -900 0 -900
-26 -20 c-25 -20 -39 -21 -245 -21 l-219 0 0 90 c0 83 -2 93 -25 115 -31 32
-69 32 -100 0 -23 -22 -25 -32 -25 -115 l0 -90 -70 0 -70 0 0 440 0 440 70 0
70 0 0 -200 c0 -200 0 -201 25 -225 31 -32 69 -32 100 0 25 24 25 25 25 224
l0 201 24 6 c13 3 37 19 52 35 l29 30 0 229 0 229 -29 30 c-15 16 -39 32 -52
35 l-24 6 0 205 0 205 220 0 221 0 24 -25z m-1935 -685 l0 -150 -55 0 -55 0 0
80 c0 67 -3 83 -20 100 -33 33 -75 30 -107 -6 -20 -21 -23 -36 -23 -100 l0
-74 -50 0 -50 0 0 150 0 150 180 0 180 0 0 -150z m1430 0 l0 -150 -55 0 -55 0
0 82 c0 96 -13 118 -70 118 -57 0 -74 -26 -79 -121 l-3 -79 -49 0 -49 0 0 150
0 150 180 0 180 0 0 -150z m-1540 -740 l0 -440 -70 0 -70 0 0 440 0 440 70 0
70 0 0 -440z m2660 -640 l0 -50 -1925 0 -1925 0 0 50 0 50 1925 0 1925 0 0
-50z m-3428 -522 c57 -17 121 -78 148 -140 71 -166 -71 -356 -252 -335 -154
19 -251 169 -206 321 15 51 99 137 148 153 48 15 115 15 162 1z m2883 1 c53
-14 136 -99 153 -155 35 -118 -15 -241 -121 -295 -115 -60 -257 -16 -324 99
-24 39 -28 58 -28 117 1 83 24 137 84 186 66 56 147 72 236 48z"/>
<path d="M1171 634 c-12 -15 -21 -38 -21 -51 0 -32 42 -73 75 -73 33 0 75 41
75 73 0 40 -36 77 -75 77 -24 0 -39 -7 -54 -26z"/>
<path d="M4055 635 c-14 -13 -25 -36 -25 -50 0 -33 42 -75 75 -75 33 0 75 41
75 73 0 68 -78 100 -125 52z"/>
</g>
</svg>
