<?xml version="1.0" standalone="no"?>
<!DOCTYPE svg PUBLIC "-//W3C//DTD SVG 20010904//EN"
 "http://www.w3.org/TR/2001/REC-SVG-20010904/DTD/svg10.dtd">
<svg version="1.0" xmlns="http://www.w3.org/2000/svg"
 width="512.000000pt" height="512.000000pt" viewBox="0 0 512.000000 512.000000"
 preserveAspectRatio="xMidYMid meet">

<g transform="translate(0.000000,512.000000) scale(0.100000,-0.100000)"
fill="#000000" stroke="none">
<path d="M1525 4981 c-47 -12 -87 -36 -121 -73 -17 -18 -105 -179 -194 -357
-154 -304 -163 -327 -163 -380 0 -67 26 -124 78 -170 43 -37 2207 -1122 2308
-1157 162 -55 339 -56 517 -4 58 17 128 38 155 46 170 48 375 20 570 -80 72
-37 87 -40 155 -41 91 0 149 24 210 85 60 60 80 109 80 200 0 91 -27 157 -86
210 -58 53 -3373 1716 -3434 1723 -25 3 -58 2 -75 -2z m1727 -992 c915 -463
1671 -851 1680 -863 39 -49 34 -119 -13 -166 -52 -51 -85 -50 -207 8 -170 81
-239 97 -417 96 -122 0 -162 -4 -215 -21 -244 -76 -241 -76 -365 -77 -87 -1
-140 4 -195 18 -58 14 -323 143 -1170 568 -602 302 -1105 559 -1117 570 -13
12 -23 30 -23 41 0 22 302 621 328 650 8 9 23 17 33 17 10 0 766 -379 1681
-841z"/>
<path d="M21 4914 l-21 -27 0 -2354 0 -2354 25 -24 c32 -33 78 -33 110 0 25
24 25 26 25 203 l0 179 118 6 c194 9 296 66 364 205 32 64 33 71 36 209 l4
143 256 0 c291 0 339 7 462 68 55 27 96 58 156 117 92 92 143 180 174 301 25
95 27 239 5 271 -31 44 -111 37 -134 -13 -6 -14 -11 -57 -11 -97 0 -218 -135
-405 -339 -467 -56 -18 -93 -20 -317 -20 l-254 0 0 130 0 130 233 0 c223 0
234 1 283 24 84 39 133 121 134 223 0 63 -14 97 -47 112 -37 17 -62 13 -88
-14 -20 -20 -25 -34 -25 -78 0 -40 -6 -61 -21 -81 l-20 -26 -224 0 -223 0 -4
142 c-3 130 -6 148 -29 198 -39 81 -90 134 -167 172 -63 31 -73 33 -194 37
l-128 3 0 1328 0 1327 -21 27 c-16 20 -29 26 -59 26 -30 0 -43 -6 -59 -26z
m390 -2867 c24 -13 58 -43 74 -66 l30 -43 3 -526 c2 -363 0 -539 -8 -565 -13
-44 -61 -102 -104 -124 -21 -11 -66 -18 -138 -21 l-108 -5 0 687 0 686 103 0
c89 0 110 -3 148 -23z"/>
<path d="M1011 4888 c-42 -29 -57 -57 -312 -573 -147 -298 -273 -562 -279
-586 -24 -90 13 -203 89 -272 25 -22 147 -90 311 -172 148 -74 270 -137 270
-139 0 -3 -38 -83 -85 -178 -95 -193 -115 -258 -115 -368 0 -158 59 -299 170
-410 76 -76 136 -111 245 -141 210 -59 425 -1 569 151 53 57 79 98 155 249
l91 181 573 -289 c314 -159 601 -300 637 -312 54 -19 86 -23 190 -23 110 0
134 3 198 26 93 33 168 79 240 144 l57 51 120 -59 c102 -51 126 -59 159 -55
66 9 86 33 178 212 79 154 87 175 88 227 0 84 -24 107 -198 190 -150 71 -197
82 -224 51 -9 -10 -65 -117 -126 -238 -93 -186 -117 -227 -159 -267 -117 -109
-285 -152 -438 -113 -64 17 -2754 1364 -2793 1399 -32 29 -52 69 -52 105 0 20
90 211 254 538 222 444 260 513 300 551 54 52 62 94 23 130 -34 32 -82 28
-136 -10z m589 -1998 c198 -99 360 -183 360 -186 0 -3 -38 -81 -85 -174 -99
-196 -146 -255 -238 -299 -307 -149 -639 87 -595 422 6 48 28 102 95 240 48
97 91 177 95 177 5 0 170 -81 368 -180z m2742 -325 l56 -28 -64 -129 -64 -128
-83 41 c-45 23 -83 43 -85 44 -2 1 25 59 59 128 l63 126 30 -13 c17 -7 57 -26
88 -41z"/>
<path d="M1400 2831 c-74 -24 -139 -82 -166 -147 -19 -44 -18 -136 1 -181 59
-140 215 -198 345 -127 217 118 147 444 -99 460 -31 2 -67 0 -81 -5z m119
-177 c60 -50 27 -145 -52 -147 -91 -3 -123 117 -42 161 32 18 61 14 94 -14z"/>
</g>
</svg>
