<?xml version="1.0" standalone="no"?>
<!DOCTYPE svg PUBLIC "-//W3C//DTD SVG 20010904//EN"
 "http://www.w3.org/TR/2001/REC-SVG-20010904/DTD/svg10.dtd">
<svg version="1.0" xmlns="http://www.w3.org/2000/svg"
 width="256.000000pt" height="256.000000pt" viewBox="0 0 256.000000 256.000000"
 preserveAspectRatio="xMidYMid meet">

<g transform="translate(0.000000,256.000000) scale(0.100000,-0.100000)"
fill="#000000" stroke="none">
<path d="M138 1864 c-58 -31 -58 -30 -58 -547 0 -354 3 -476 12 -485 8 -8 45
-12 103 -12 l90 0 23 -42 c34 -65 82 -93 157 -93 52 0 67 4 99 28 33 26 39 27
54 14 96 -84 250 -46 286 71 l7 22 369 0 369 0 7 -22 c20 -67 92 -117 167
-118 38 0 87 19 119 47 15 13 20 12 51 -11 66 -51 154 -47 216 10 21 19 44 48
51 64 l12 30 92 0 c58 0 96 4 104 12 9 9 12 131 12 485 0 404 -2 478 -15 503
-33 63 35 60 -1187 60 -965 -1 -1117 -3 -1140 -16z m2250 -76 c7 -7 12 -38 12
-70 l0 -58 -153 0 c-106 0 -157 -4 -165 -12 -9 -9 -12 -86 -12 -284 0 -239 2
-273 16 -278 9 -3 83 -6 165 -6 l149 0 0 -90 0 -90 -1120 0 -1120 0 0 90 0 90
149 0 c82 0 156 3 165 6 14 5 16 39 16 278 0 198 -3 275 -12 284 -8 8 -59 12
-165 12 l-153 0 0 58 c0 32 5 63 12 70 17 17 2199 17 2216 0z m-1978 -418 l0
-210 -125 0 -125 0 0 210 0 210 125 0 125 0 0 -210z m1990 0 l0 -210 -125 0
-125 0 0 210 0 210 125 0 125 0 0 -210z m-1850 -559 c0 -19 -54 -51 -85 -51
-31 0 -85 32 -85 51 0 5 38 9 85 9 47 0 85 -4 85 -9z m270 0 c0 -17 -52 -51
-77 -51 -31 0 -79 25 -86 45 -5 13 6 15 78 15 47 0 85 -4 85 -9z m1083 -6 c-7
-20 -55 -45 -86 -45 -25 0 -77 34 -77 51 0 5 38 9 85 9 72 0 83 -2 78 -15z
m277 6 c0 -19 -54 -51 -85 -51 -31 0 -85 32 -85 51 0 5 38 9 85 9 47 0 85 -4
85 -9z"/>
<path d="M638 1649 c-16 -9 -18 -33 -18 -277 0 -195 3 -271 12 -280 17 -17
569 -17 586 0 9 9 12 85 12 280 0 254 -1 268 -19 278 -26 13 -550 13 -573 -1z
m512 -279 l0 -210 -225 0 -225 0 0 210 0 210 225 0 225 0 0 -210z"/>
<path d="M1348 1649 c-16 -9 -18 -33 -18 -277 0 -195 3 -271 12 -280 17 -17
569 -17 586 0 9 9 12 85 12 280 0 254 -1 268 -19 278 -26 13 -550 13 -573 -1z
m512 -279 l0 -210 -225 0 -225 0 0 210 0 210 225 0 225 0 0 -210z"/>
</g>
</svg>
