<?xml version="1.0" standalone="no"?>
<!DOCTYPE svg PUBLIC "-//W3C//DTD SVG 20010904//EN"
 "http://www.w3.org/TR/2001/REC-SVG-20010904/DTD/svg10.dtd">
<svg version="1.0" xmlns="http://www.w3.org/2000/svg"
 width="512.000000pt" height="512.000000pt" viewBox="0 0 512.000000 512.000000"
 preserveAspectRatio="xMidYMid meet">

<g transform="translate(0.000000,512.000000) scale(0.100000,-0.100000)"
fill="#000000" stroke="none">
<path d="M867 4930 c-110 -28 -210 -112 -260 -218 -29 -61 -32 -76 -32 -162 0
-86 3 -101 31 -160 53 -112 119 -171 232 -209 207 -70 428 44 493 252 76 243
-96 491 -349 503 -42 2 -94 -1 -115 -6z"/>
<path d="M2433 4911 c-108 -40 -176 -103 -227 -211 -28 -59 -31 -74 -31 -160
0 -87 3 -101 32 -160 101 -206 341 -287 538 -182 281 151 267 566 -24 700 -76
35 -211 42 -288 13z"/>
<path d="M4032 4910 c-218 -78 -322 -325 -224 -533 115 -246 441 -302 630
-109 199 205 118 548 -152 643 -73 25 -183 25 -254 -1z"/>
<path d="M320 4011 c-30 -10 -70 -26 -89 -36 -52 -27 -138 -112 -171 -170 -61
-106 -60 -98 -60 -905 0 -691 2 -737 19 -775 63 -139 251 -149 332 -18 l24 38
3 734 c2 663 4 737 19 753 9 10 27 18 40 18 l23 0 0 -1644 0 -1644 28 -53 c86
-165 325 -155 403 16 18 38 19 91 19 968 l0 927 50 0 50 0 0 -927 c0 -877 1
-930 19 -968 77 -169 318 -181 400 -20 l26 49 5 1676 c4 1357 8 1683 19 1715
21 63 79 169 118 214 l34 41 -28 12 c-21 10 -173 14 -628 15 -553 2 -604 1
-655 -16z"/>
<path d="M1985 4019 c-129 -19 -267 -114 -328 -227 -57 -105 -57 -101 -57
-902 0 -696 1 -737 19 -776 30 -65 81 -98 160 -102 59 -3 71 0 112 26 89 57
84 6 87 842 2 734 2 735 23 753 51 42 48 139 51 -1630 3 -1595 4 -1649 22
-1686 53 -106 163 -157 273 -126 61 17 137 88 152 144 7 28 11 326 11 963 l0
922 50 0 50 0 0 -932 c0 -1052 -5 -978 79 -1049 113 -97 273 -67 344 64 l22
42 5 1680 c4 1371 8 1687 19 1720 23 68 71 158 112 206 l38 47 -42 13 c-51 15
-1106 23 -1202 8z"/>
<path d="M3585 4019 c-177 -26 -338 -176 -374 -347 -7 -36 -11 -287 -11 -785
0 -693 1 -734 19 -773 29 -64 80 -97 156 -102 81 -5 135 22 173 88 l27 45 3
731 c2 678 4 732 20 746 9 9 27 19 40 22 l22 7 0 -1648 c0 -1573 1 -1650 19
-1688 35 -77 122 -135 205 -135 87 0 193 77 215 155 7 28 11 326 11 963 l0
922 50 0 50 0 0 -932 c0 -888 1 -935 19 -973 36 -77 124 -135 205 -135 85 0
172 57 207 135 18 38 19 115 19 1688 l0 1648 23 -7 c12 -3 30 -13 39 -22 16
-14 18 -67 20 -746 3 -831 -2 -781 87 -838 41 -26 53 -29 112 -26 79 4 130 37
160 102 18 39 19 80 19 776 0 802 0 797 -57 902 -64 118 -197 207 -338 228
-85 12 -1055 11 -1140 -1z"/>
</g>
</svg>
